<svg width="15" height="14" viewBox="0 0 15 14" fill="none" xmlns="http://www.w3.org/2000/svg">
            <path d="M11.0742 6C12.7311 6 14.0742 4.65685 14.0742 3C14.0742 1.34315 12.7311 0 11.0742 0C9.41736 0 8.07422 1.34315 8.07422 3C8.07422 4.65685 9.41736 6 11.0742 6Z" fill="#000"></path>
            <path d="M4.07031 6C5.72717 6 7.07031 4.65685 7.07031 3C7.07031 1.34315 5.72717 0 4.07031 0C2.41346 0 1.07031 1.34315 1.07031 3C1.07031 4.65685 2.41346 6 4.07031 6Z" fill="#000"></path>
            <path d="M11.0742 14C12.7311 14 14.0742 12.6569 14.0742 11C14.0742 9.34315 12.7311 8 11.0742 8C9.41736 8 8.07422 9.34315 8.07422 11C8.07422 12.6569 9.41736 14 11.0742 14Z" fill="#000"></path>
            <path d="M3.92773 14C5.58459 14 6.92773 12.6569 6.92773 11C6.92773 9.34315 5.58459 8 3.92773 8C2.27088 8 0.927734 9.34315 0.927734 11C0.927734 12.6569 2.27088 14 3.92773 14Z" fill="#000"></path>
          </svg>