<svg width="20" height="14" viewBox="0 0 20 14" fill="none" xmlns="http://www.w3.org/2000/svg">
            <path d="M2.07422 4C3.17879 4 4.07422 3.10457 4.07422 2C4.07422 0.89543 3.17879 0 2.07422 0C0.969649 0 0.0742188 0.89543 0.0742188 2C0.0742188 3.10457 0.969649 4 2.07422 4Z" fill="#000"></path>
            <path d="M2.07422 9C3.17879 9 4.07422 8.10457 4.07422 7C4.07422 5.89543 3.17879 5 2.07422 5C0.969649 5 0.0742188 5.89543 0.0742188 7C0.0742188 8.10457 0.969649 9 2.07422 9Z" fill="#000"></path>
            <path d="M2.07422 14C3.17879 14 4.07422 13.1046 4.07422 12C4.07422 10.8954 3.17879 10 2.07422 10C0.969649 10 0.0742188 10.8954 0.0742188 12C0.0742188 13.1046 0.969649 14 2.07422 14Z" fill="#000"></path>
            <path d="M19.0742 2C19.0742 2.552 18.6272 3 18.0742 3H6.07422C5.52222 3 5.07422 2.552 5.07422 2C5.07422 1.448 5.52222 1 6.07422 1H18.0742C18.6272 1 19.0742 1.447 19.0742 2Z" fill="#000"></path>
            <path d="M19.0742 7C19.0742 7.552 18.6272 8 18.0742 8H6.07422C5.52222 8 5.07422 7.552 5.07422 7C5.07422 6.448 5.52222 6 6.07422 6H18.0742C18.6272 6 19.0742 6.447 19.0742 7Z" fill="#000"></path>
            <path d="M19.0742 12C19.0742 12.552 18.6272 13 18.0742 13H6.07422C5.52222 13 5.07422 12.552 5.07422 12C5.07422 11.447 5.52222 11 6.07422 11H18.0742C18.6272 11 19.0742 11.447 19.0742 12Z" fill="#000"></path>
          </svg>