<svg width="20" height="14" viewBox="0 0 20 14" fill="none" xmlns="http://www.w3.org/2000/svg">
            <path d="M2.07422 4C3.17879 4 4.07422 3.10457 4.07422 2C4.07422 0.89543 3.17879 0 2.07422 0C0.969649 0 0.0742188 0.89543 0.0742188 2C0.0742188 3.10457 0.969649 4 2.07422 4Z" fill="#000"></path>
            <path d="M2.07422 9C3.17879 9 4.07422 8.10457 4.07422 7C4.07422 5.89543 3.17879 5 2.07422 5C0.969649 5 0.0742188 5.89543 0.0742188 7C0.0742188 8.10457 0.969649 9 2.07422 9Z" fill="#000"></path>
            <path d="M2.07422 14C3.17879 14 4.07422 13.1046 4.07422 12C4.07422 10.8954 3.17879 10 2.07422 10C0.969649 10 0.0742188 10.8954 0.0742188 12C0.0742188 13.1046 0.969649 14 2.07422 14Z" fill="#000"></path>
            <path d="M7.07422 4C8.17879 4 9.07422 3.10457 9.07422 2C9.07422 0.89543 8.17879 0 7.07422 0C5.96965 0 5.07422 0.89543 5.07422 2C5.07422 3.10457 5.96965 4 7.07422 4Z" fill="#000"></path>
            <path d="M7.07422 9C8.17879 9 9.07422 8.10457 9.07422 7C9.07422 5.89543 8.17879 5 7.07422 5C5.96965 5 5.07422 5.89543 5.07422 7C5.07422 8.10457 5.96965 9 7.07422 9Z" fill="#000"></path>
            <path d="M7.07422 14C8.17879 14 9.07422 13.1046 9.07422 12C9.07422 10.8954 8.17879 10 7.07422 10C5.96965 10 5.07422 10.8954 5.07422 12C5.07422 13.1046 5.96965 14 7.07422 14Z" fill="#000"></path>
            <path d="M12.0742 4C13.1788 4 14.0742 3.10457 14.0742 2C14.0742 0.89543 13.1788 0 12.0742 0C10.9696 0 10.0742 0.89543 10.0742 2C10.0742 3.10457 10.9696 4 12.0742 4Z" fill="#000"></path>
            <path d="M12.0742 9C13.1788 9 14.0742 8.10457 14.0742 7C14.0742 5.89543 13.1788 5 12.0742 5C10.9696 5 10.0742 5.89543 10.0742 7C10.0742 8.10457 10.9696 9 12.0742 9Z" fill="#000"></path>
            <path d="M12.0742 14C13.1788 14 14.0742 13.1046 14.0742 12C14.0742 10.8954 13.1788 10 12.0742 10C10.9696 10 10.0742 10.8954 10.0742 12C10.0742 13.1046 10.9696 14 12.0742 14Z" fill="#000"></path>
            <path d="M17.0742 4C18.1788 4 19.0742 3.10457 19.0742 2C19.0742 0.89543 18.1788 0 17.0742 0C15.9696 0 15.0742 0.89543 15.0742 2C15.0742 3.10457 15.9696 4 17.0742 4Z" fill="#000"></path>
            <path d="M17.0742 9C18.1788 9 19.0742 8.10457 19.0742 7C19.0742 5.89543 18.1788 5 17.0742 5C15.9696 5 15.0742 5.89543 15.0742 7C15.0742 8.10457 15.9696 9 17.0742 9Z" fill="#000"></path>
            <path d="M17.0742 14C18.1788 14 19.0742 13.1046 19.0742 12C19.0742 10.8954 18.1788 10 17.0742 10C15.9696 10 15.0742 10.8954 15.0742 12C15.0742 13.1046 15.9696 14 17.0742 14Z" fill="#000"></path>
          </svg>